# xmcd
#
# Track frame offsets: 
#        150
#        15873
#        31005
#        45678
#        58127
#        74027
#        91164
#        101570
#        118708
#        131635
#        147023
#        162763
#
# Disc length: 2407 seconds
#
# Revision: 1
# Processed by: cddbd v1.5.2PL0 Copyright (c) Steve Scherf et al.
# Submitted via: ExactAudioCopyFreeDBPlugin 1.0
#
DISCID=9a09650c
DTITLE=ศรัณย่า ส่งเสริมสวัสดิ์ - ดาวล้อมเดือน ชุดพิเศษ 5
DYEAR=1900
DGENRE=
TTITLE0=คุณไม่รักทำไมไม่บอก
TTITLE1=เหมือนไม่เคย
TTITLE2=รักปักใจ
TTITLE3=รักฉันนาน ๆ
TTITLE4=ลมสวาท
TTITLE5=รักคุณเข้าแล้ว
TTITLE6=รักไม่รู้ดับ
TTITLE7=ครวญ
TTITLE8=ฟ้ามิอาจกั้น
TTITLE9=พรุ่งนี้ไม่มีอะไรแน่
TTITLE10=แค่คืบ
TTITLE11=รักข้ามขอบฟ้า
EXTD=
EXTT0=
EXTT1=
EXTT2=
EXTT3=
EXTT4=
EXTT5=
EXTT6=
EXTT7=
EXTT8=
EXTT9=
EXTT10=
EXTT11=
PLAYORDER=
